# ProBuilder 4.2.3
# https://unity3d.com/unity/features/worldbuilding/probuilder
# 2022. 07. 26. 21:30:20

mtllib ./ffafafafafafafaf.mtl
o ffafafafafafafaf

g Cylinder
v -0.5 -0.5 0
v -0.5 0.5 0
v -0.4957224 -0.5 0.0652631
v -0.4957224 0.5 0.0652631
v -0.4829629 -0.5 0.1294095
v -0.4829629 0.5 0.1294095
v -0.4619398 -0.5 0.1913417
v -0.4619398 0.5 0.1913417
v -0.4330127 -0.5 0.25
v -0.4330127 0.5 0.25
v -0.3966767 -0.5 0.3043807
v -0.3966767 0.5 0.3043807
v -0.3535534 -0.5 0.3535534
v -0.3535534 0.5 0.3535534
v -0.3043807 -0.5 0.3966767
v -0.3043807 0.5 0.3966767
v -0.25 -0.5 0.4330127
v -0.25 0.5 0.4330127
v -0.1913417 -0.5 0.4619398
v -0.1913417 0.5 0.4619398
v -0.1294096 -0.5 0.4829629
v -0.1294096 0.5 0.4829629
v -0.06526312 -0.5 0.4957224
v -0.06526312 0.5 0.4957224
v 0 -0.5 0.5
v 0 0.5 0.5
v 0.06526309 -0.5 0.4957224
v 0.06526309 0.5 0.4957224
v 0.1294096 -0.5 0.4829629
v 0.1294096 0.5 0.4829629
v 0.1913417 -0.5 0.4619398
v 0.1913417 0.5 0.4619398
v 0.25 -0.5 0.4330127
v 0.25 0.5 0.4330127
v 0.3043807 -0.5 0.3966767
v 0.3043807 0.5 0.3966767
v 0.3535534 -0.5 0.3535534
v 0.3535534 0.5 0.3535534
v 0.3966767 -0.5 0.3043807
v 0.3966767 0.5 0.3043807
v 0.4330127 -0.5 0.25
v 0.4330127 0.5 0.25
v 0.4619398 -0.5 0.1913417
v 0.4619398 0.5 0.1913417
v 0.4829629 -0.5 0.1294096
v 0.4829629 0.5 0.1294096
v 0.4957224 -0.5 0.06526316
v 0.4957224 0.5 0.06526316
v 0.5 -0.5 -4.371139E-08
v 0.5 0.5 -4.371139E-08
v 0.4957224 -0.5 -0.06526313
v 0.4957224 0.5 -0.06526313
v 0.4829629 -0.5 -0.1294095
v 0.4829629 0.5 -0.1294095
v 0.4619398 -0.5 -0.1913417
v 0.4619398 0.5 -0.1913417
v 0.4330127 -0.5 -0.25
v 0.4330127 0.5 -0.25
v 0.3966767 -0.5 -0.3043807
v 0.3966767 0.5 -0.3043807
v 0.3535534 -0.5 -0.3535534
v 0.3535534 0.5 -0.3535534
v 0.3043808 -0.5 -0.3966766
v 0.3043808 0.5 -0.3966766
v 0.2499999 -0.5 -0.4330127
v 0.2499999 0.5 -0.4330127
v 0.1913418 -0.5 -0.4619398
v 0.1913418 0.5 -0.4619398
v 0.1294095 -0.5 -0.4829629
v 0.1294095 0.5 -0.4829629
v 0.06526321 -0.5 -0.4957224
v 0.06526321 0.5 -0.4957224
v 0 -0.5 -0.5
v 0 0.5 -0.5
v -0.06526297 -0.5 -0.4957224
v -0.06526297 0.5 -0.4957224
v -0.1294095 -0.5 -0.4829629
v -0.1294095 0.5 -0.4829629
v -0.1913418 -0.5 -0.4619397
v -0.1913418 0.5 -0.4619397
v -0.2499999 -0.5 -0.4330127
v -0.2499999 0.5 -0.4330127
v -0.3043808 -0.5 -0.3966766
v -0.3043808 0.5 -0.3966766
v -0.3535533 -0.5 -0.3535534
v -0.3535533 0.5 -0.3535534
v -0.3966767 -0.5 -0.3043807
v -0.3966767 0.5 -0.3043807
v -0.4330127 -0.5 -0.2500001
v -0.4330127 0.5 -0.2500001
v -0.4619398 -0.5 -0.1913417
v -0.4619398 0.5 -0.1913417
v -0.4829629 -0.5 -0.1294096
v -0.4829629 0.5 -0.1294096
v -0.4957224 -0.5 -0.06526311
v -0.4957224 0.5 -0.06526311
v 0 -0.5 0
v 0 0.5 0

vt -0.03270147 -0.5
vt -0.03270147 0.5
vt 0.03270166 -0.5
vt 0.03270166 0.5
vt -0.5 0
vt 0 0
vt -0.4957224 0.0652631
vt 0.5 0
vt 0.4957224 0.0652631
vt -0.4829629 0.1294095
vt 0.4829629 0.1294095
vt -0.4619398 0.1913417
vt 0.4619398 0.1913417
vt -0.4330127 0.25
vt 0.4330127 0.25
vt -0.3966767 0.3043807
vt 0.3966767 0.3043807
vt -0.3535534 0.3535534
vt 0.3535534 0.3535534
vt -0.3043807 0.3966767
vt 0.3043807 0.3966767
vt -0.25 0.4330127
vt 0.25 0.4330127
vt -0.1913417 0.4619398
vt 0.1913417 0.4619398
vt -0.1294096 0.4829629
vt 0.1294096 0.4829629
vt -0.06526312 0.4957224
vt 0.06526312 0.4957224
vt 0 0.5
vt 0.4957224 -0.06526313
vt -0.4957224 -0.06526313
vt 0.4829629 -0.1294095
vt -0.4829629 -0.1294095
vt 0.4619398 -0.1913417
vt -0.4619398 -0.1913417
vt 0.4330127 -0.25
vt -0.4330127 -0.25
vt 0.3966767 -0.3043807
vt -0.3966767 -0.3043807
vt 0.3535534 -0.3535534
vt -0.3535534 -0.3535534
vt 0.3043808 -0.3966766
vt -0.3043808 -0.3966766
vt 0.2499999 -0.4330127
vt -0.2499999 -0.4330127
vt 0.1913418 -0.4619398
vt -0.1913418 -0.4619398
vt 0.1294095 -0.4829629
vt -0.1294095 -0.4829629
vt 0.06526321 -0.4957224
vt -0.06526321 -0.4957224
vt 0 -0.5
vt -0.4330127 -0.2500001
vt 0.4330127 -0.2500001

vn -1 0 7.466567E-09
vn -0.9914449 0 0.1305263
vn -0.9659258 0 0.2588192
vn -0.9238796 0 0.3826835
vn -0.8660253 0 0.5000001
vn -0.7933533 0 0.6087615
vn -0.7071068 0 0.7071068
vn -0.6087616 0 0.7933532
vn -0.4999999 0 0.8660255
vn -0.3826833 0 0.9238796
vn -0.2588192 0 0.9659258
vn -0.1305262 0 0.9914449
vn -2.127972E-07 0 1
vn 0.1305262 0 0.9914449
vn 0.2588191 0 0.9659258
vn 0.3826835 0 0.9238795
vn 0.5000001 0 0.8660253
vn 0.6087613 0 0.7933534
vn 0.7071068 0 0.7071068
vn 0.7933532 0 0.6087616
vn 0.8660253 0 0.5000001
vn 0.9238796 0 0.3826833
vn 0.9659258 0 0.2588191
vn 0.9914449 0 0.1305262
vn 1 0 -5.973254E-08
vn 0.9914449 0 -0.1305263
vn 0.9659258 0 -0.2588191
vn 0.9238796 0 -0.3826833
vn 0.8660253 0 -0.5000001
vn 0.7933533 0 -0.6087615
vn 0.707107 0 -0.7071065
vn 0.6087615 0 -0.7933533
vn 0.5 0 -0.8660254
vn 0.3826836 0 -0.9238795
vn 0.258819 0 -0.9659258
vn 0.1305262 0 -0.9914449
vn 1.045319E-07 0 -1
vn -0.1305262 0 -0.9914449
vn -0.258819 0 -0.9659258
vn -0.3826835 0 -0.9238796
vn -0.5 0 -0.8660254
vn -0.6087614 0 -0.7933534
vn -0.7071068 0 -0.7071068
vn -0.7933532 0 -0.6087616
vn -0.8660253 0 -0.5000002
vn -0.9238796 0 -0.3826834
vn -0.9659258 0 -0.2588192
vn -0.9914449 0 -0.1305263
vn 0 -1 0
vn 0 1 0

usemtl ProBuilderDefault
f 1/5/49 97/6/49 3/7/49
f 3/7/49 97/6/49 5/10/49
f 5/10/49 97/6/49 7/12/49
f 7/12/49 97/6/49 9/14/49
f 9/14/49 97/6/49 11/16/49
f 11/16/49 97/6/49 13/18/49
f 13/18/49 97/6/49 15/20/49
f 15/20/49 97/6/49 17/22/49
f 17/22/49 97/6/49 19/24/49
f 19/24/49 97/6/49 21/26/49
f 21/26/49 97/6/49 23/28/49
f 23/28/49 97/6/49 25/30/49
f 25/30/49 97/6/49 27/29/49
f 27/29/49 97/6/49 29/27/49
f 29/27/49 97/6/49 31/25/49
f 31/25/49 97/6/49 33/23/49
f 33/23/49 97/6/49 35/21/49
f 35/21/49 97/6/49 37/19/49
f 37/19/49 97/6/49 39/17/49
f 39/17/49 97/6/49 41/15/49
f 41/15/49 97/6/49 43/13/49
f 43/13/49 97/6/49 45/11/49
f 45/11/49 97/6/49 47/9/49
f 47/9/49 97/6/49 49/8/49
f 49/8/49 97/6/49 51/31/49
f 51/31/49 97/6/49 53/33/49
f 53/33/49 97/6/49 55/35/49
f 55/35/49 97/6/49 57/37/49
f 57/37/49 97/6/49 59/39/49
f 59/39/49 97/6/49 61/41/49
f 61/41/49 97/6/49 63/43/49
f 63/43/49 97/6/49 65/45/49
f 65/45/49 97/6/49 67/47/49
f 67/47/49 97/6/49 69/49/49
f 69/49/49 97/6/49 71/51/49
f 71/51/49 97/6/49 73/53/49
f 73/53/49 97/6/49 75/52/49
f 75/52/49 97/6/49 77/50/49
f 77/50/49 97/6/49 79/48/49
f 79/48/49 97/6/49 81/46/49
f 81/46/49 97/6/49 83/44/49
f 83/44/49 97/6/49 85/42/49
f 85/42/49 97/6/49 87/40/49
f 87/40/49 97/6/49 89/54/49
f 89/54/49 97/6/49 91/36/49
f 91/36/49 97/6/49 93/34/49
f 93/34/49 97/6/49 95/32/49
f 95/32/49 97/6/49 1/5/49
f 4/9/50 98/6/50 2/8/50
f 6/11/50 98/6/50 4/9/50
f 8/13/50 98/6/50 6/11/50
f 10/15/50 98/6/50 8/13/50
f 12/17/50 98/6/50 10/15/50
f 14/19/50 98/6/50 12/17/50
f 16/21/50 98/6/50 14/19/50
f 18/23/50 98/6/50 16/21/50
f 20/25/50 98/6/50 18/23/50
f 22/27/50 98/6/50 20/25/50
f 24/29/50 98/6/50 22/27/50
f 26/30/50 98/6/50 24/29/50
f 28/28/50 98/6/50 26/30/50
f 30/26/50 98/6/50 28/28/50
f 32/24/50 98/6/50 30/26/50
f 34/22/50 98/6/50 32/24/50
f 36/20/50 98/6/50 34/22/50
f 38/18/50 98/6/50 36/20/50
f 40/16/50 98/6/50 38/18/50
f 42/14/50 98/6/50 40/16/50
f 44/12/50 98/6/50 42/14/50
f 46/10/50 98/6/50 44/12/50
f 48/7/50 98/6/50 46/10/50
f 50/5/50 98/6/50 48/7/50
f 52/32/50 98/6/50 50/5/50
f 54/34/50 98/6/50 52/32/50
f 56/36/50 98/6/50 54/34/50
f 58/38/50 98/6/50 56/36/50
f 60/40/50 98/6/50 58/38/50
f 62/42/50 98/6/50 60/40/50
f 64/44/50 98/6/50 62/42/50
f 66/46/50 98/6/50 64/44/50
f 68/48/50 98/6/50 66/46/50
f 70/50/50 98/6/50 68/48/50
f 72/52/50 98/6/50 70/50/50
f 74/53/50 98/6/50 72/52/50
f 76/51/50 98/6/50 74/53/50
f 78/49/50 98/6/50 76/51/50
f 80/47/50 98/6/50 78/49/50
f 82/45/50 98/6/50 80/47/50
f 84/43/50 98/6/50 82/45/50
f 86/41/50 98/6/50 84/43/50
f 88/39/50 98/6/50 86/41/50
f 90/55/50 98/6/50 88/39/50
f 92/35/50 98/6/50 90/55/50
f 94/33/50 98/6/50 92/35/50
f 96/31/50 98/6/50 94/33/50
f 2/8/50 98/6/50 96/31/50
f 4/4/2 2/2/1 1/1/1
f 1/1/1 3/3/2 4/4/2
f 6/4/3 4/2/2 3/1/2
f 3/1/2 5/3/3 6/4/3
f 8/4/4 6/2/3 5/1/3
f 5/1/3 7/3/4 8/4/4
f 10/4/5 8/2/4 7/1/4
f 7/1/4 9/3/5 10/4/5
f 12/4/6 10/2/5 9/1/5
f 9/1/5 11/3/6 12/4/6
f 14/4/7 12/2/6 11/1/6
f 11/1/6 13/3/7 14/4/7
f 16/4/8 14/2/7 13/1/7
f 13/1/7 15/3/8 16/4/8
f 18/4/9 16/2/8 15/1/8
f 15/1/8 17/3/9 18/4/9
f 20/4/10 18/2/9 17/1/9
f 17/1/9 19/3/10 20/4/10
f 22/4/11 20/2/10 19/1/10
f 19/1/10 21/3/11 22/4/11
f 24/4/12 22/2/11 21/1/11
f 21/1/11 23/3/12 24/4/12
f 26/4/13 24/2/12 23/1/12
f 23/1/12 25/3/13 26/4/13
f 28/4/14 26/2/13 25/1/13
f 25/1/13 27/3/14 28/4/14
f 30/4/15 28/2/14 27/1/14
f 27/1/14 29/3/15 30/4/15
f 32/4/16 30/2/15 29/1/15
f 29/1/15 31/3/16 32/4/16
f 34/4/17 32/2/16 31/1/16
f 31/1/16 33/3/17 34/4/17
f 36/4/18 34/2/17 33/1/17
f 33/1/17 35/3/18 36/4/18
f 38/4/19 36/2/18 35/1/18
f 35/1/18 37/3/19 38/4/19
f 40/4/20 38/2/19 37/1/19
f 37/1/19 39/3/20 40/4/20
f 42/4/21 40/2/20 39/1/20
f 39/1/20 41/3/21 42/4/21
f 44/4/22 42/2/21 41/1/21
f 41/1/21 43/3/22 44/4/22
f 46/4/23 44/2/22 43/1/22
f 43/1/22 45/3/23 46/4/23
f 48/4/24 46/2/23 45/1/23
f 45/1/23 47/3/24 48/4/24
f 50/4/25 48/2/24 47/1/24
f 47/1/24 49/3/25 50/4/25
f 52/4/26 50/2/25 49/1/25
f 49/1/25 51/3/26 52/4/26
f 54/4/27 52/2/26 51/1/26
f 51/1/26 53/3/27 54/4/27
f 56/4/28 54/2/27 53/1/27
f 53/1/27 55/3/28 56/4/28
f 58/4/29 56/2/28 55/1/28
f 55/1/28 57/3/29 58/4/29
f 60/4/30 58/2/29 57/1/29
f 57/1/29 59/3/30 60/4/30
f 62/4/31 60/2/30 59/1/30
f 59/1/30 61/3/31 62/4/31
f 64/4/32 62/2/31 61/1/31
f 61/1/31 63/3/32 64/4/32
f 66/4/33 64/2/32 63/1/32
f 63/1/32 65/3/33 66/4/33
f 68/4/34 66/2/33 65/1/33
f 65/1/33 67/3/34 68/4/34
f 70/4/35 68/2/34 67/1/34
f 67/1/34 69/3/35 70/4/35
f 72/4/36 70/2/35 69/1/35
f 69/1/35 71/3/36 72/4/36
f 74/4/37 72/2/36 71/1/36
f 71/1/36 73/3/37 74/4/37
f 76/4/38 74/2/37 73/1/37
f 73/1/37 75/3/38 76/4/38
f 78/4/39 76/2/38 75/1/38
f 75/1/38 77/3/39 78/4/39
f 80/4/40 78/2/39 77/1/39
f 77/1/39 79/3/40 80/4/40
f 82/4/41 80/2/40 79/1/40
f 79/1/40 81/3/41 82/4/41
f 84/4/42 82/2/41 81/1/41
f 81/1/41 83/3/42 84/4/42
f 86/4/43 84/2/42 83/1/42
f 83/1/42 85/3/43 86/4/43
f 88/4/44 86/2/43 85/1/43
f 85/1/43 87/3/44 88/4/44
f 90/4/45 88/2/44 87/1/44
f 87/1/44 89/3/45 90/4/45
f 92/4/46 90/2/45 89/1/45
f 89/1/45 91/3/46 92/4/46
f 94/4/47 92/2/46 91/1/46
f 91/1/46 93/3/47 94/4/47
f 96/4/48 94/2/47 93/1/47
f 93/1/47 95/3/48 96/4/48
f 2/4/1 96/2/48 95/1/48
f 95/1/48 1/3/1 2/4/1

